PathFileType	4	(X/Y/Z)	Patient4_TMGait_0pt7_02_left_28.trc.trc
DataRate	CameraRate	NumFrames	NumMarkers	Units	OrigDataRate	OrigDataStartFrame	OrigNumFrames
86.956521739130	86.956521739130	4	33	mm	86.956521739130	106	       141
Frame#	Time	Sacral			L.Shoulder			Chest			R.Shoulder			Neck			R.ASIS			L.ASIS			R.Thigh.Superior			R.Thigh.Lateral			R.Thigh.Inferior			R.Patella			L.Thigh.Superior			L.Thigh.Lateral			L.Thigh.Inferior			L.Patella			L.Shank.Superior			L.Shank.Lateral			L.Shank.Inferior			R.Shank.Superior			R.Shank.Lateral			R.Shank.Inferior			R.Heel			R.Midfoot.Superior			R.Midfoot.Lateral			R.Toe			L.Heel			L.Midfoot.Lateral			L.Midfoot.Superior			L.Toe			L.Elbow			L.Wrist			R.Elbow			R.Wrist			
		X1	Y1	Z1	X2	Y2	Z2	X3	Y3	Z3	X4	Y4	Z4	X5	Y5	Z5	X6	Y6	Z6	X7	Y7	Z7	X8	Y8	Z8	X9	Y9	Z9	X10	Y10	Z10	X11	Y11	Z11	X12	Y12	Z12	X13	Y13	Z13	X14	Y14	Z14	X15	Y15	Z15	X16	Y16	Z16	X17	Y17	Z17	X18	Y18	Z18	X19	Y19	Z19	X20	Y20	Z20	X21	Y21	Z21	X22	Y22	Z22	X23	Y23	Z23	X24	Y24	Z24	X25	Y25	Z25	X26	Y26	Z26	X27	Y27	Z27	X28	Y28	Z28	X29	Y29	Z29	X30	Y30	Z30	X31	Y31	Z31	X32	Y32	Z32	X33	Y33	Z33	

106	33.127500000000	842.686750987608	1018.100180024723	525.701696884560	1044.909635148436	1420.673361871554	316.154266856652	1160.006904221069	1343.291378016967	466.789497701554	1109.015554872319	1430.802800977473	646.184295493590	1074.722106363397	1485.428565327176	467.232421125423	1071.689402975108	937.104482206946	627.197405613643	1038.618666775488	955.338564742663	354.576166679137	1106.449882696478	738.269922391998	595.996177474838	1025.863429601452	631.805905172177	657.994597592130	1097.523720460370	578.806866813716	573.293484363173	1096.449394167639	488.714133718870	578.975292681624	1131.479806324164	797.582829299494	390.221562122549	1106.732223328317	671.515078129528	304.040992165034	1213.756602834700	617.795096263651	370.170101338433	1239.440667973311	531.964604979763	358.735576374700	1185.139088925693	457.911180108049	344.743568425683	1055.293975623493	389.990344489630	293.124269790213	1072.556136575723	257.519556986027	338.818952810562	1063.311987816537	401.705148549613	587.448031194127	989.088787622440	301.262085014882	650.558255513155	1024.594655273452	204.982386454282	585.225640405990	882.768135415800	43.457208943051	558.429176151651	1054.496686292204	96.624453839393	591.299695547072	966.616838396518	37.199630960197	631.434046041519	1174.938469712459	42.552198957765	618.885072125618	902.918123930726	150.340885899839	373.649081454517	966.110642318481	124.736838536299	288.891710655640	1067.575641387939	152.766294610282	309.689808479515	1166.056707986838	62.622654926672	270.426311905354	969.748727923010	1067.226666733872	229.462091618930	1030.442236500793	812.801891716361	225.329450230109	1087.987395814867	1091.092654873236	789.588258196394	1270.262483806460	914.044278207389	736.581070873574	
107	33.139000000000	841.392720241756	1018.549951170883	526.509830192147	1044.169357870143	1420.053268584103	315.817230504077	1159.633625341722	1342.657478569409	466.156412508383	1109.625482831316	1430.575731615914	645.720484300594	1074.616892176875	1485.037565174074	466.746987494104	1070.386154606058	936.766772864738	627.101966392257	1036.465788993302	955.202682599884	354.441250832811	1102.656919467141	737.212073279582	595.377734799216	1021.613755800660	631.530029804402	658.231626055201	1092.059880261900	577.769994005877	573.105994774276	1089.839629263569	487.931234771537	578.854920000370	1129.952021635939	799.654361202529	390.635570984660	1107.413308857772	673.518220081618	303.816263984333	1214.413303668918	621.070389337494	370.724720603277	1242.107498802187	536.652452660949	358.930062988560	1191.224877855464	461.421866731650	344.383136213957	1065.830834073233	386.717859444821	291.608134805482	1090.139610452037	255.018290010088	337.217896569568	1056.569225531987	401.090627984128	587.462329918106	982.072479660000	300.926471083286	650.669264065409	1016.918858158273	204.551068507266	585.190348905613	874.586230690253	43.275125990599	558.462297538863	1046.253075655544	96.569868273427	591.271798914618	958.448802198975	37.125016719895	631.531329403418	1166.758049594927	42.670641365394	618.892405667225	926.679007132666	138.295787681974	370.842163057768	991.690730131728	116.576991983020	286.418165975510	1091.273248121970	150.114240207009	307.872055451531	1194.867848777611	65.715983410500	269.100504390964	963.336723528709	1067.492416166951	230.479898256659	1006.270666110287	809.674260667969	224.737285964491	1097.295871826530	1091.147459894585	789.546397807856	1291.727818555335	930.943658914096	730.134631221427	
108	33.150500000000	840.159349765276	1018.965419300214	527.065540914736	1043.600187405511	1419.475482148764	315.393692306208	1159.348949441590	1341.967365553271	465.442778621172	1110.261509509033	1430.245582680639	645.178198879210	1074.609033933470	1484.613600674602	466.220010364545	1069.096973471956	936.413259168545	626.935994852356	1034.587390453141	954.985145908265	354.181484105715	1098.903602643022	736.139933432731	594.826936225881	1017.320612111832	631.248231213888	658.423289490567	1086.619150682880	576.708454047105	572.950860068450	1083.244296377129	487.181370129597	578.751579640148	1128.220671638207	801.179610461725	390.937506294670	1107.542721835394	675.029428668960	303.484307687890	1214.416422935616	623.660742136856	371.123602331709	1243.955518190747	540.769398647692	359.131767461346	1196.551556131803	464.580372531070	344.161406008168	1076.267468372721	383.286661966875	289.834462603880	1107.327766355326	252.810585783856	335.753915005821	1049.855778341014	400.505042438564	587.469815353888	975.083992098768	300.606616063573	650.759303840078	1009.258733469036	204.141242761825	585.149315566405	866.407711765056	43.130808061422	558.496759786428	1038.027068511561	96.521739907339	591.255425183602	950.289034446193	37.062097377785	631.619480927988	1158.588065505411	42.770322552620	618.898593956747	950.480290318074	126.938831082088	367.622206410324	1017.490724367002	109.081191495001	283.935611172439	1114.719499763973	148.042881398532	306.450080677635	1223.222741395876	69.624999522528	268.916458225767	956.462425346514	1068.207911414480	231.020923339825	983.135109324618	808.464443244673	224.306447922159	1106.803859937869	1091.291476821817	789.049349225496	1311.964575559925	949.293075395518	723.179512446262	
109	33.162000000000	839.017439497343	1019.357746548370	527.358237784714	1043.193074590646	1418.968569739532	314.886519540211	1159.151484904262	1341.254200870437	464.648576242073	1110.926095440332	1429.846038596961	644.552557520833	1074.700565555888	1484.184564793998	465.649779715500	1067.848958336889	936.073406296289	626.692915685195	1032.983738091128	954.688501306433	353.798877797353	1095.218968755371	735.063062126392	594.374888787762	1012.955824242868	630.974115095658	658.557269936995	1081.187148642477	575.630586741129	572.837767288952	1076.645468862578	486.476341028802	578.655230253774	1126.339520009620	802.170273999451	391.130200901966	1107.153896515848	676.043636455442	303.038267277115	1213.823012313417	625.548632726857	371.329862576379	1245.017575722693	544.275612457768	359.332537387634	1201.101091150406	467.347731437903	344.090043387317	1086.516406783062	379.755808937630	287.851539057333	1123.926099934073	250.924871983641	334.486606951174	1043.152916883964	399.961783560879	587.462354053388	968.102191364200	300.316855547450	650.824842558821	1001.608784501275	203.765432900876	585.100006218009	858.234178208570	43.026336131405	558.533129627492	1029.819745017775	96.478542231256	591.246459280385	942.137608565972	37.012303694907	631.694590725345	1150.429809117156	42.851283482782	618.902640867115	974.032132489471	116.393790329921	364.096416730771	1043.210736013067	102.339157142794	281.546195714026	1137.641641893242	146.587065721892	305.486983188454	1250.799087161161	74.327820910939	269.934240737589	949.156584989465	1069.420023361997	231.110400009042	961.295481700551	808.897036249325	224.047667227749	1116.519780587837	1091.553357405171	788.060873208177	1330.776723580361	968.911693960159	715.811894532621	
